<mxfile host="Electron" agent="Mozilla/5.0 (Windows NT 10.0; Win64; x64) AppleWebKit/537.36 (KHTML, like Gecko) draw.io/28.2.5 Chrome/138.0.7204.251 Electron/37.6.1 Safari/537.36" version="28.2.5">
  <diagram name="Page-1" id="TSz4_mrtkU8jwX8XJMEn">
    <mxGraphModel dx="2058" dy="1872" grid="1" gridSize="10" guides="1" tooltips="1" connect="1" arrows="1" fold="1" page="1" pageScale="1" pageWidth="850" pageHeight="1100" math="0" shadow="0">
      <root>
        <mxCell id="0" />
        <mxCell id="1" parent="0" />
        <mxCell id="sjAbNs9uLfRLazWnYptY-65" value="" style="rounded=1;whiteSpace=wrap;html=1;fillColor=none;arcSize=1;dashed=1;fontSize=14;" parent="1" vertex="1">
          <mxGeometry x="-110" y="-150" width="670" height="680" as="geometry" />
        </mxCell>
        <mxCell id="sjAbNs9uLfRLazWnYptY-67" value="" style="rounded=1;whiteSpace=wrap;html=1;fillColor=none;arcSize=1;dashed=1;fontSize=15;movable=0;resizable=0;rotatable=0;deletable=0;editable=0;locked=1;connectable=0;" parent="1" vertex="1">
          <mxGeometry x="590" y="-150" width="670" height="680" as="geometry" />
        </mxCell>
        <mxCell id="sjAbNs9uLfRLazWnYptY-1" value="Integration Model" style="text;align=center;verticalAlign=bottom;rounded=0;fillColor=#f5f5f5;strokeColor=none;fontColor=#333333;fontSize=17;fontStyle=1;labelBackgroundColor=none;textShadow=1;whiteSpace=wrap;html=1;" parent="1" vertex="1">
          <mxGeometry x="19" y="42" width="180" height="30" as="geometry" />
        </mxCell>
        <mxCell id="sjAbNs9uLfRLazWnYptY-5" value="&lt;span style=&quot;color: rgb(193, 193, 193); font-size: 10px; font-weight: 700;&quot;&gt;How tables are connected&lt;/span&gt;" style="text;html=1;align=center;verticalAlign=middle;whiteSpace=wrap;rounded=0;" parent="1" vertex="1">
          <mxGeometry x="40" y="72" width="150" height="20" as="geometry" />
        </mxCell>
        <mxCell id="sjAbNs9uLfRLazWnYptY-16" value="&lt;span style=&quot;background-color: light-dark(#ffffff, var(--ge-dark-color, #121212));&quot;&gt;&lt;font style=&quot;font-size: 22px;&quot;&gt;crm_cust_info&lt;/font&gt;&lt;/span&gt;" style="swimlane;fontStyle=0;childLayout=stackLayout;horizontal=1;startSize=30;horizontalStack=0;resizeParent=1;resizeParentMax=0;resizeLast=0;collapsible=1;marginBottom=0;whiteSpace=wrap;html=1;" parent="1" vertex="1">
          <mxGeometry x="325" y="350" width="200" height="90" as="geometry">
            <mxRectangle x="320" y="110" width="120" height="30" as="alternateBounds" />
          </mxGeometry>
        </mxCell>
        <mxCell id="sjAbNs9uLfRLazWnYptY-17" value="&lt;font style=&quot;font-size: 20px;&quot;&gt;cst_id&lt;/font&gt;" style="text;strokeColor=none;fillColor=none;align=left;verticalAlign=middle;spacingLeft=4;spacingRight=4;overflow=hidden;points=[[0,0.5],[1,0.5]];portConstraint=eastwest;rotatable=0;whiteSpace=wrap;html=1;" parent="sjAbNs9uLfRLazWnYptY-16" vertex="1">
          <mxGeometry y="30" width="200" height="30" as="geometry" />
        </mxCell>
        <mxCell id="sjAbNs9uLfRLazWnYptY-54" value="&lt;font style=&quot;font-size: 15px;&quot;&gt;cst_key&lt;/font&gt;" style="text;strokeColor=none;fillColor=none;align=left;verticalAlign=middle;spacingLeft=4;spacingRight=4;overflow=hidden;points=[[0,0.5],[1,0.5]];portConstraint=eastwest;rotatable=0;whiteSpace=wrap;html=1;" parent="sjAbNs9uLfRLazWnYptY-16" vertex="1">
          <mxGeometry y="60" width="200" height="30" as="geometry" />
        </mxCell>
        <mxCell id="sjAbNs9uLfRLazWnYptY-20" value="Customer Information" style="text;html=1;align=center;verticalAlign=middle;whiteSpace=wrap;rounded=0;fillColor=#f5f5f5;strokeColor=#666666;fontColor=#333333;" parent="1" vertex="1">
          <mxGeometry x="340" y="320" width="170" height="30" as="geometry" />
        </mxCell>
        <mxCell id="sjAbNs9uLfRLazWnYptY-35" value="&lt;span style=&quot;background-color: light-dark(#ffffff, var(--ge-dark-color, #121212));&quot;&gt;&lt;font style=&quot;font-size: 22px;&quot;&gt;crm_prd_info&lt;/font&gt;&lt;/span&gt;" style="swimlane;fontStyle=0;childLayout=stackLayout;horizontal=1;startSize=30;horizontalStack=0;resizeParent=1;resizeParentMax=0;resizeLast=0;collapsible=1;marginBottom=0;whiteSpace=wrap;html=1;" parent="1" vertex="1">
          <mxGeometry x="325" y="12" width="200" height="60" as="geometry">
            <mxRectangle x="320" y="110" width="120" height="30" as="alternateBounds" />
          </mxGeometry>
        </mxCell>
        <mxCell id="sjAbNs9uLfRLazWnYptY-36" value="&lt;font style=&quot;font-size: 15px;&quot;&gt;prd_key&lt;/font&gt;" style="text;strokeColor=none;fillColor=none;align=left;verticalAlign=middle;spacingLeft=4;spacingRight=4;overflow=hidden;points=[[0,0.5],[1,0.5]];portConstraint=eastwest;rotatable=0;whiteSpace=wrap;html=1;" parent="sjAbNs9uLfRLazWnYptY-35" vertex="1">
          <mxGeometry y="30" width="200" height="30" as="geometry" />
        </mxCell>
        <mxCell id="sjAbNs9uLfRLazWnYptY-37" value="Current &amp;amp; History Product Information" style="text;html=1;align=center;verticalAlign=middle;whiteSpace=wrap;rounded=0;fillColor=#f5f5f5;strokeColor=#666666;fontColor=#333333;" parent="1" vertex="1">
          <mxGeometry x="340" y="-18" width="170" height="30" as="geometry" />
        </mxCell>
        <mxCell id="sjAbNs9uLfRLazWnYptY-38" value="&lt;span style=&quot;background-color: light-dark(#ffffff, var(--ge-dark-color, #121212));&quot;&gt;&lt;font style=&quot;font-size: 22px;&quot;&gt;crm_sales_details&lt;/font&gt;&lt;/span&gt;" style="swimlane;fontStyle=0;childLayout=stackLayout;horizontal=1;startSize=30;horizontalStack=0;resizeParent=1;resizeParentMax=0;resizeLast=0;collapsible=1;marginBottom=0;whiteSpace=wrap;html=1;" parent="1" vertex="1">
          <mxGeometry x="30" y="180" width="200" height="90" as="geometry">
            <mxRectangle x="320" y="110" width="120" height="30" as="alternateBounds" />
          </mxGeometry>
        </mxCell>
        <mxCell id="sjAbNs9uLfRLazWnYptY-39" value="&lt;font style=&quot;font-size: 15px;&quot;&gt;prd_key&lt;/font&gt;" style="text;strokeColor=none;fillColor=none;align=left;verticalAlign=middle;spacingLeft=4;spacingRight=4;overflow=hidden;points=[[0,0.5],[1,0.5]];portConstraint=eastwest;rotatable=0;whiteSpace=wrap;html=1;" parent="sjAbNs9uLfRLazWnYptY-38" vertex="1">
          <mxGeometry y="30" width="200" height="30" as="geometry" />
        </mxCell>
        <mxCell id="sjAbNs9uLfRLazWnYptY-43" value="&lt;font style=&quot;font-size: 15px;&quot;&gt;cst_id&lt;/font&gt;" style="text;strokeColor=none;fillColor=none;align=left;verticalAlign=middle;spacingLeft=4;spacingRight=4;overflow=hidden;points=[[0,0.5],[1,0.5]];portConstraint=eastwest;rotatable=0;whiteSpace=wrap;html=1;" parent="sjAbNs9uLfRLazWnYptY-38" vertex="1">
          <mxGeometry y="60" width="200" height="30" as="geometry" />
        </mxCell>
        <mxCell id="sjAbNs9uLfRLazWnYptY-40" value="Transactional Records about Sales &amp;amp; Orders" style="text;html=1;align=center;verticalAlign=middle;whiteSpace=wrap;rounded=0;fillColor=#f5f5f5;strokeColor=#666666;fontColor=#333333;" parent="1" vertex="1">
          <mxGeometry x="45" y="150" width="170" height="30" as="geometry" />
        </mxCell>
        <mxCell id="sjAbNs9uLfRLazWnYptY-47" style="edgeStyle=orthogonalEdgeStyle;rounded=0;orthogonalLoop=1;jettySize=auto;html=1;entryX=0;entryY=0.5;entryDx=0;entryDy=0;" parent="1" source="sjAbNs9uLfRLazWnYptY-43" target="sjAbNs9uLfRLazWnYptY-36" edge="1">
          <mxGeometry relative="1" as="geometry">
            <Array as="points">
              <mxPoint x="230" y="230" />
              <mxPoint x="277" y="230" />
              <mxPoint x="277" y="57" />
            </Array>
          </mxGeometry>
        </mxCell>
        <mxCell id="sjAbNs9uLfRLazWnYptY-48" style="edgeStyle=orthogonalEdgeStyle;rounded=0;orthogonalLoop=1;jettySize=auto;html=1;entryX=0;entryY=0.5;entryDx=0;entryDy=0;exitX=1;exitY=0.5;exitDx=0;exitDy=0;" parent="1" source="sjAbNs9uLfRLazWnYptY-43" target="sjAbNs9uLfRLazWnYptY-17" edge="1">
          <mxGeometry relative="1" as="geometry">
            <mxPoint x="215" y="239.8811764705883" as="sourcePoint" />
            <mxPoint x="325" y="409.94" as="targetPoint" />
          </mxGeometry>
        </mxCell>
        <mxCell id="sjAbNs9uLfRLazWnYptY-49" value="&lt;font style=&quot;font-size: 22px;&quot;&gt;erp_cust_az12&lt;/font&gt;" style="swimlane;fontStyle=0;childLayout=stackLayout;horizontal=1;startSize=30;horizontalStack=0;resizeParent=1;resizeParentMax=0;resizeLast=0;collapsible=1;marginBottom=0;whiteSpace=wrap;html=1;align=center;" parent="1" vertex="1">
          <mxGeometry x="870" y="197.5" width="200" height="60" as="geometry">
            <mxRectangle x="320" y="110" width="120" height="30" as="alternateBounds" />
          </mxGeometry>
        </mxCell>
        <mxCell id="sjAbNs9uLfRLazWnYptY-50" value="&lt;font&gt;cid&lt;/font&gt;" style="text;strokeColor=none;fillColor=none;align=left;verticalAlign=middle;spacingLeft=4;spacingRight=4;overflow=hidden;points=[[0,0.5],[1,0.5]];portConstraint=eastwest;rotatable=0;whiteSpace=wrap;html=1;fontSize=20;" parent="sjAbNs9uLfRLazWnYptY-49" vertex="1">
          <mxGeometry y="30" width="200" height="30" as="geometry" />
        </mxCell>
        <mxCell id="sjAbNs9uLfRLazWnYptY-51" value="Extra Customer Info. Birth Date" style="text;html=1;align=center;verticalAlign=middle;whiteSpace=wrap;rounded=0;fillColor=#66FFB3;strokeColor=#b85450;fontColor=#000066;" parent="1" vertex="1">
          <mxGeometry x="870" y="165" width="200" height="32.5" as="geometry" />
        </mxCell>
        <mxCell id="sjAbNs9uLfRLazWnYptY-55" style="edgeStyle=orthogonalEdgeStyle;rounded=0;orthogonalLoop=1;jettySize=auto;html=1;entryX=1;entryY=0.5;entryDx=0;entryDy=0;" parent="1" source="sjAbNs9uLfRLazWnYptY-50" target="sjAbNs9uLfRLazWnYptY-54" edge="1">
          <mxGeometry relative="1" as="geometry">
            <mxPoint x="550" y="425" as="targetPoint" />
          </mxGeometry>
        </mxCell>
        <mxCell id="sjAbNs9uLfRLazWnYptY-56" value="&lt;font style=&quot;font-size: 22px;&quot;&gt;erp_loc_a101&lt;/font&gt;" style="swimlane;fontStyle=0;childLayout=stackLayout;horizontal=1;startSize=30;horizontalStack=0;resizeParent=1;resizeParentMax=0;resizeLast=0;collapsible=1;marginBottom=0;whiteSpace=wrap;html=1;align=center;" parent="1" vertex="1">
          <mxGeometry x="870" y="425" width="200" height="60" as="geometry">
            <mxRectangle x="320" y="110" width="120" height="30" as="alternateBounds" />
          </mxGeometry>
        </mxCell>
        <mxCell id="sjAbNs9uLfRLazWnYptY-57" value="&lt;font&gt;cid&lt;/font&gt;" style="text;strokeColor=none;fillColor=none;align=left;verticalAlign=middle;spacingLeft=4;spacingRight=4;overflow=hidden;points=[[0,0.5],[1,0.5]];portConstraint=eastwest;rotatable=0;whiteSpace=wrap;html=1;fontSize=20;" parent="sjAbNs9uLfRLazWnYptY-56" vertex="1">
          <mxGeometry y="30" width="200" height="30" as="geometry" />
        </mxCell>
        <mxCell id="sjAbNs9uLfRLazWnYptY-58" value="Extra Customer Info. Country" style="text;html=1;align=center;verticalAlign=middle;whiteSpace=wrap;rounded=0;fillColor=#66FFB3;strokeColor=#b85450;fontColor=#000066;" parent="1" vertex="1">
          <mxGeometry x="870" y="395" width="200" height="30" as="geometry" />
        </mxCell>
        <mxCell id="sjAbNs9uLfRLazWnYptY-59" style="edgeStyle=orthogonalEdgeStyle;rounded=0;orthogonalLoop=1;jettySize=auto;html=1;entryX=1;entryY=0.5;entryDx=0;entryDy=0;" parent="1" source="sjAbNs9uLfRLazWnYptY-57" target="sjAbNs9uLfRLazWnYptY-54" edge="1">
          <mxGeometry relative="1" as="geometry" />
        </mxCell>
        <mxCell id="sjAbNs9uLfRLazWnYptY-60" value="&lt;font style=&quot;font-size: 22px;&quot;&gt;erp_px_cat_g1v2&lt;/font&gt;" style="swimlane;fontStyle=0;childLayout=stackLayout;horizontal=1;startSize=30;horizontalStack=0;resizeParent=1;resizeParentMax=0;resizeLast=0;collapsible=1;marginBottom=0;whiteSpace=wrap;html=1;align=center;" parent="1" vertex="1">
          <mxGeometry x="870" y="-5.5" width="200" height="60" as="geometry">
            <mxRectangle x="320" y="110" width="120" height="30" as="alternateBounds" />
          </mxGeometry>
        </mxCell>
        <mxCell id="sjAbNs9uLfRLazWnYptY-61" value="&lt;font&gt;id&lt;/font&gt;" style="text;strokeColor=none;fillColor=none;align=left;verticalAlign=middle;spacingLeft=4;spacingRight=4;overflow=hidden;points=[[0,0.5],[1,0.5]];portConstraint=eastwest;rotatable=0;whiteSpace=wrap;html=1;fontSize=20;" parent="sjAbNs9uLfRLazWnYptY-60" vertex="1">
          <mxGeometry y="30" width="200" height="30" as="geometry" />
        </mxCell>
        <mxCell id="sjAbNs9uLfRLazWnYptY-62" value="Extra Customer Info. Country" style="text;html=1;align=center;verticalAlign=middle;whiteSpace=wrap;rounded=0;fillColor=#66FFB3;strokeColor=#b85450;fontColor=#000066;" parent="1" vertex="1">
          <mxGeometry x="870" y="-35" width="200" height="29.5" as="geometry" />
        </mxCell>
        <mxCell id="sjAbNs9uLfRLazWnYptY-63" style="edgeStyle=orthogonalEdgeStyle;rounded=0;orthogonalLoop=1;jettySize=auto;html=1;" parent="1" source="sjAbNs9uLfRLazWnYptY-61" target="sjAbNs9uLfRLazWnYptY-36" edge="1">
          <mxGeometry relative="1" as="geometry" />
        </mxCell>
        <mxCell id="sjAbNs9uLfRLazWnYptY-66" value="&lt;font style=&quot;font-size: 24px;&quot;&gt;CRM&lt;/font&gt;" style="text;html=1;align=center;verticalAlign=middle;whiteSpace=wrap;rounded=0;fillColor=#f5f5f5;fillStyle=auto;fontColor=#333333;strokeColor=#666666;fontStyle=1" parent="1" vertex="1">
          <mxGeometry x="110" y="-170" width="200" height="50" as="geometry" />
        </mxCell>
        <mxCell id="sjAbNs9uLfRLazWnYptY-68" value="&lt;font style=&quot;font-size: 24px;&quot;&gt;ERP&lt;/font&gt;" style="text;html=1;align=center;verticalAlign=middle;whiteSpace=wrap;rounded=0;fillColor=#f5f5f5;fillStyle=auto;fontColor=#333333;strokeColor=#666666;fontStyle=1" parent="1" vertex="1">
          <mxGeometry x="850" y="-170" width="200" height="50" as="geometry" />
        </mxCell>
        <mxCell id="i2xB3HcicDTkSZ4ti_7i-2" value="Products" style="text;html=1;strokeColor=#36393d;fillColor=#ffcccc;align=center;verticalAlign=middle;whiteSpace=wrap;overflow=hidden;fontSize=20;fontStyle=1;fontColor=light-dark(#000000,#020202);" vertex="1" parent="1">
          <mxGeometry x="325" y="72" width="195" height="40" as="geometry" />
        </mxCell>
        <mxCell id="i2xB3HcicDTkSZ4ti_7i-3" value="Products" style="text;html=1;strokeColor=#36393d;fillColor=#ffcccc;align=center;verticalAlign=middle;whiteSpace=wrap;overflow=hidden;fontSize=20;fontStyle=1;fontColor=light-dark(#000000,#020202);" vertex="1" parent="1">
          <mxGeometry x="870" y="54.5" width="195" height="40" as="geometry" />
        </mxCell>
        <mxCell id="i2xB3HcicDTkSZ4ti_7i-4" value="Customers" style="text;html=1;strokeColor=#36393d;fillColor=#ffcccc;align=center;verticalAlign=middle;whiteSpace=wrap;overflow=hidden;fontSize=20;fontStyle=1;fontColor=light-dark(#000000,#020202);" vertex="1" parent="1">
          <mxGeometry x="872.5" y="260" width="195" height="40" as="geometry" />
        </mxCell>
        <mxCell id="i2xB3HcicDTkSZ4ti_7i-5" value="Customers" style="text;html=1;strokeColor=#314354;fillColor=#647687;align=center;verticalAlign=middle;whiteSpace=wrap;overflow=hidden;fontSize=20;fontStyle=1;fontColor=#ffffff;" vertex="1" parent="1">
          <mxGeometry x="328" y="445" width="195" height="40" as="geometry" />
        </mxCell>
        <mxCell id="i2xB3HcicDTkSZ4ti_7i-7" value="Customers" style="text;html=1;strokeColor=#314354;fillColor=#647687;align=center;verticalAlign=middle;whiteSpace=wrap;overflow=hidden;fontSize=20;fontStyle=1;fontColor=#ffffff;" vertex="1" parent="1">
          <mxGeometry x="870" y="485" width="195" height="40" as="geometry" />
        </mxCell>
        <mxCell id="i2xB3HcicDTkSZ4ti_7i-8" value="Sales" style="text;html=1;fillColor=#fff2cc;align=center;verticalAlign=middle;whiteSpace=wrap;overflow=hidden;fontSize=20;fontStyle=1;strokeColor=#d6b656;gradientColor=#ffd966;fontColor=#000000;" vertex="1" parent="1">
          <mxGeometry x="30" y="270" width="195" height="40" as="geometry" />
        </mxCell>
      </root>
    </mxGraphModel>
  </diagram>
</mxfile>
